<svg fill="#000000" height="200px" width="200px" version="1.1" id="Capa_1" xmlns="http://www.w3.org/2000/svg" xmlns:xlink="http://www.w3.org/1999/xlink" viewBox="0 0 494.175 494.175" xml:space="preserve"><g id="SVGRepo_bgCarrier" stroke-width="0"></g><g id="SVGRepo_tracerCarrier" stroke-linecap="round" stroke-linejoin="round"></g><g id="SVGRepo_iconCarrier"> <g id="XMLID_168_"> <g id="XMLID_172_"> <path id="XMLID_174_" d="M300.943,105.495l74.676-59.463c0.787-0.636,1.171-1.666,0.963-2.663 c-0.207-0.998-0.951-1.802-1.945-2.067L256.37,9.264c-5.408-1.464-11.084,1.087-13.596,6.091L118.639,263.309 c16.808,7.813,34.226,13.603,51.89,18.188v-8.149c0-18.194,14.755-32.945,32.949-32.945h87.22 c18.193,0,32.941,14.751,32.941,32.945v8.158c17.495-4.55,35.211-10.535,51.877-18.238l-75.926-151.646 C298.544,109.516,299.092,106.965,300.943,105.495z"></path> <path id="XMLID_173_" d="M379.41,270.01l21.48,43.915c-24.919,11.714-50.834,20.382-77.252,26.104v12.544 c0,18.196-14.748,32.945-32.941,32.945h-87.22c-18.193,0-32.949-14.749-32.949-32.945v-12.544 c-26.411-5.721-52.326-14.39-77.232-26.104l22.073-44.101C46.116,290.521,0,326.933,0,368.525 c0,64.505,110.628,116.796,247.087,116.796c136.46,0,247.087-52.291,247.087-116.796 C494.175,327.056,448.321,290.738,379.41,270.01z"></path> </g> <path id="XMLID_169_" d="M290.697,369.047c9.106,0,16.474-7.374,16.474-16.474v-79.226c0-9.096-7.368-16.471-16.474-16.471h-87.22 c-9.106,0-16.474,7.375-16.474,16.471v79.226c0,9.1,7.368,16.474,16.474,16.474H290.697z M219.945,289.822h54.277v46.28h-54.277 V289.822z"></path> </g> </g></svg>
